<?xml version="1.0" standalone="no"?>
<svg xmlns:xlink="http://www.w3.org/1999/xlink" id="wave" style="transform:rotate(180deg); transition: 0.3s" viewBox="0 0 1440 490" version="1.1" xmlns="http://www.w3.org/2000/svg"><defs><linearGradient id="sw-gradient-0" x1="0" x2="0" y1="1" y2="0"><stop stop-color="rgba(243, 106, 62, 1)" offset="0%"/><stop stop-color="rgba(255, 179, 11, 1)" offset="100%"/></linearGradient></defs><path style="transform:translate(0, 0px); opacity:1" fill="url(#sw-gradient-0)" d="M0,441L120,367.5C240,294,480,147,720,73.5C960,0,1200,0,1440,73.5C1680,147,1920,294,2160,310.3C2400,327,2640,212,2880,212.3C3120,212,3360,327,3600,318.5C3840,310,4080,180,4320,138.8C4560,98,4800,147,5040,196C5280,245,5520,294,5760,326.7C6000,359,6240,376,6480,334.8C6720,294,6960,196,7200,171.5C7440,147,7680,196,7920,245C8160,294,8400,343,8640,351.2C8880,359,9120,327,9360,302.2C9600,278,9840,261,10080,212.3C10320,163,10560,82,10800,81.7C11040,82,11280,163,11520,212.3C11760,261,12000,278,12240,294C12480,310,12720,327,12960,334.8C13200,343,13440,343,13680,343C13920,343,14160,343,14400,334.8C14640,327,14880,310,15120,326.7C15360,343,15600,392,15840,367.5C16080,343,16320,245,16560,171.5C16800,98,17040,49,17160,24.5L17280,0L17280,490L17160,490C17040,490,16800,490,16560,490C16320,490,16080,490,15840,490C15600,490,15360,490,15120,490C14880,490,14640,490,14400,490C14160,490,13920,490,13680,490C13440,490,13200,490,12960,490C12720,490,12480,490,12240,490C12000,490,11760,490,11520,490C11280,490,11040,490,10800,490C10560,490,10320,490,10080,490C9840,490,9600,490,9360,490C9120,490,8880,490,8640,490C8400,490,8160,490,7920,490C7680,490,7440,490,7200,490C6960,490,6720,490,6480,490C6240,490,6000,490,5760,490C5520,490,5280,490,5040,490C4800,490,4560,490,4320,490C4080,490,3840,490,3600,490C3360,490,3120,490,2880,490C2640,490,2400,490,2160,490C1920,490,1680,490,1440,490C1200,490,960,490,720,490C480,490,240,490,120,490L0,490Z"/></svg>